# xmcd
#
# Track frame offsets:
#	150
#	11556
#	27341
#	38410
#	55574
#	83297
#	108216
#	127681
#	145289
#	170253
#	192714
#	217155
#
# Disc length: 3217 seconds
#
# Revision: 1
# Processed by: cddbd v1.5.2PL0 Copyright (c) Steve Scherf et al.
# Submitted via: audiograbber 1.83.01
#
DISCID=910c8f0c
DTITLE=Dwayne Dopsie - Been Good To You
DYEAR=2012
DGENRE=Blues
TTITLE0=You Pretty Little Girl
TTITLE1=Everyday, I Think of You
TTITLE2=I Want to Dance with You
TTITLE3=Come Home to Me Darling
TTITLE4=Where did My Baby go?
TTITLE5=Wonder When You're Coming Back
TTITLE6=I Want to Love You
TTITLE7=Sometimes I Never Want to Come Back
TTITLE8=I've Been Good to You
TTITLE9=If You Gonna Leave Me
TTITLE10=It's Been a Long Time
TTITLE11=Come on Down to New Orleans
EXTD=
EXTT0=
EXTT1=
EXTT2=
EXTT3=
EXTT4=
EXTT5=
EXTT6=
EXTT7=
EXTT8=
EXTT9=
EXTT10=
EXTT11=
PLAYORDER=
